<svg width="62" height="62" viewBox="0 0 62 62" fill="none" xmlns="http://www.w3.org/2000/svg">
<g filter="url(#filter0_d_132_179)">
<circle cx="31" cy="27" r="17" transform="rotate(90 31 27)" fill="#F9F9FF"/>
</g>
<g clip-path="url(#clip0_132_179)">
<path d="M38 30.481V24.519C38 22.5786 36.4214 21 34.481 21H28.5189C26.5786 21 25 22.5786 25 24.519V30.4811C25 32.4214 26.5786 34 28.5189 34H34.481C36.4214 34 38 32.4214 38 30.481V30.481ZM28.5189 33.2379C26.9988 33.2379 25.7621 32.0012 25.7621 30.481V24.519C25.7621 22.9988 26.9988 21.7621 28.5189 21.7621H34.481C36.0012 21.7621 37.2379 22.9988 37.2379 24.519V30.4811C37.2379 32.0012 36.0012 33.2379 34.481 33.2379H28.5189Z" fill="#1A202C"/>
<path d="M31.5001 30.0547C33.4601 30.0547 35.0547 28.4601 35.0547 26.5001C35.0547 24.5401 33.4601 22.9455 31.5001 22.9455C29.5401 22.9455 27.9455 24.5401 27.9455 26.5001C27.9455 28.4601 29.5401 30.0547 31.5001 30.0547ZM31.5001 23.7076C33.0398 23.7076 34.2926 24.9603 34.2926 26.5001C34.2926 28.0398 33.0398 29.2926 31.5001 29.2926C29.9603 29.2926 28.7076 28.0398 28.7076 26.5001C28.7076 24.9603 29.9603 23.7076 31.5001 23.7076Z" fill="#1A202C"/>
<path d="M36.3169 31.1394C36.3169 30.5602 35.8457 30.0891 35.2666 30.0891C34.6873 30.0891 34.2161 30.5602 34.2161 31.1394C34.2161 31.7187 34.6873 32.1899 35.2666 32.1899C35.8458 32.1899 36.3169 31.7187 36.3169 31.1394ZM34.9783 31.1394C34.9783 30.9806 35.1077 30.8512 35.2666 30.8512C35.4255 30.8512 35.5548 30.9806 35.5548 31.1394C35.5548 31.2984 35.4255 31.4278 35.2666 31.4278C35.1077 31.4278 34.9783 31.2984 34.9783 31.1394Z" fill="#1A202C"/>
</g>
<defs>
<filter id="filter0_d_132_179" x="0" y="0" width="62" height="62" filterUnits="userSpaceOnUse" color-interpolation-filters="sRGB">
<feFlood flood-opacity="0" result="BackgroundImageFix"/>
<feColorMatrix in="SourceAlpha" type="matrix" values="0 0 0 0 0 0 0 0 0 0 0 0 0 0 0 0 0 0 127 0" result="hardAlpha"/>
<feOffset dy="4"/>
<feGaussianBlur stdDeviation="7"/>
<feColorMatrix type="matrix" values="0 0 0 0 0 0 0 0 0 0 0 0 0 0 0 0 0 0 0.15 0"/>
<feBlend mode="normal" in2="BackgroundImageFix" result="effect1_dropShadow_132_179"/>
<feBlend mode="normal" in="SourceGraphic" in2="effect1_dropShadow_132_179" result="shape"/>
</filter>
<clipPath id="clip0_132_179">
<rect width="13" height="13" fill="white" transform="matrix(0 1 -1 0 38 21)"/>
</clipPath>
</defs>
</svg>
