<svg width="30" height="30" viewBox="0 0 30 30" fill="none" xmlns="http://www.w3.org/2000/svg">
<mask id="mask0_26_299" style="mask-type:luminance" maskUnits="userSpaceOnUse" x="0" y="0" width="30" height="30">
<path d="M0 0H30V30H0V0Z" fill="white"/>
</mask>
<g mask="url(#mask0_26_299)">
<path d="M11.9395 28.315C11.9137 28.315 11.8875 28.3124 11.8613 28.3068C11.6597 28.2638 11.5312 28.0655 11.5742 27.864L14.6512 13.4396C14.6943 13.238 14.8926 13.1098 15.094 13.1525C15.2955 13.1955 15.424 13.3937 15.381 13.5953L12.304 28.0197C12.2666 28.195 12.1118 28.315 11.9395 28.315Z" fill="#333333"/>
<path d="M22.3079 28.315C22.1356 28.315 21.9807 28.195 21.9434 28.0197L18.8663 13.5953C18.8234 13.3937 18.9518 13.1955 19.1534 13.1525C19.3548 13.1098 19.553 13.238 19.5961 13.4396L22.6732 27.864C22.7161 28.0655 22.5877 28.2638 22.3861 28.3068C22.3598 28.3124 22.3336 28.315 22.3079 28.315Z" fill="#333333"/>
<path d="M20.6082 20.3708H13.6338C13.4278 20.3708 13.2607 20.2036 13.2607 19.9977C13.2607 19.7917 13.4278 19.6246 13.6338 19.6246H20.6082C20.8142 19.6246 20.9813 19.7917 20.9813 19.9977C20.9813 20.2036 20.8142 20.3708 20.6082 20.3708Z" fill="#333333"/>
<path d="M25.4158 1.48209C26.9313 0.85193 28.6708 1.56969 29.3009 3.08528C29.9308 4.60013 29.2131 6.33958 27.6974 6.96974L25.4158 1.48209Z" fill="#61CCF2"/>
<path d="M27.6975 6.96974L28.1587 8.07866L23.8651 9.86392L23.4165 8.785L21.1098 3.23721L20.6611 2.15828L24.9547 0.373095L25.4159 1.48208L27.6975 6.96974Z" fill="#FCBC1D"/>
<path d="M23.6096 27.9417L24.0349 29.6269H20.7577L21.1829 27.9417H23.6096Z" fill="#20505B"/>
<path d="M21.1099 3.23721L23.4166 8.785L19.8593 10.2642C19.5664 9.55962 19.005 8.96744 18.2445 8.6536C16.7221 8.02545 14.9798 8.74992 14.3524 10.2719C14.0378 11.0329 14.0618 11.8484 14.3547 12.553L8.02675 15.1841L7.52322 13.9732L6.22349 10.8473L5.71997 9.63633L21.1099 3.23721Z" fill="#20505B"/>
<path d="M19.8592 10.2642C20.1521 10.9687 20.1765 11.785 19.8626 12.5457C19.2342 14.0673 17.4917 14.7916 15.9705 14.164C15.2092 13.8505 14.6476 13.2575 14.3546 12.553C14.0617 11.8484 14.0377 11.0328 14.3522 10.2719C14.9797 8.74994 16.722 8.02545 18.2443 8.6536C19.0048 8.96745 19.5662 9.55963 19.8592 10.2642ZM18.4587 10.8464C18.1485 10.1 17.2912 9.74632 16.5447 10.0567C15.7982 10.367 15.4447 11.2243 15.7549 11.9707C16.0652 12.7171 16.9226 13.0708 17.669 12.7605C18.4155 12.4502 18.7692 11.5928 18.4587 10.8464Z" fill="#FCBC1D"/>
<path d="M16.5449 10.0567C17.2912 9.74632 18.1486 10.1 18.4589 10.8464C18.7693 11.5928 18.4156 12.4501 17.6691 12.7605C16.9228 13.0708 16.0655 12.7171 15.7551 11.9707C15.4447 11.2243 15.7985 10.367 16.5449 10.0567Z" fill="#20505B"/>
<path d="M13.0644 27.9417L13.4896 29.6269H10.2124L10.6377 27.9417H13.0644Z" fill="#20505B"/>
<path d="M7.52359 13.9737L6.22396 10.8477L2.04028 12.587L3.33991 15.713L7.52359 13.9737Z" fill="#FCBC1D"/>
<path d="M2.03999 12.5868L3.3397 15.7126L3.6299 16.4105L2.35138 16.9421L0.471191 12.4204L1.74972 11.8888L2.03999 12.5868Z" fill="#20505B"/>
<path d="M23.8652 10.2372C23.719 10.2372 23.5803 10.1506 23.5206 10.0072L23.072 8.92834C22.9928 8.73806 23.083 8.51966 23.2733 8.44055C23.4633 8.36131 23.6819 8.45145 23.761 8.6418L24.0665 9.37621L27.671 7.87748L24.7533 0.86081L21.1488 2.35954L21.4542 3.09386C21.5334 3.28414 21.4433 3.50255 21.2529 3.58165C21.0627 3.66082 20.8442 3.57068 20.7651 3.3804L20.3165 2.30156C20.2786 2.21016 20.2784 2.10747 20.3162 2.01599C20.3538 1.9245 20.4264 1.85175 20.5179 1.81384L24.8114 0.0285812C24.9028 -0.00939998 25.0055 -0.00954921 25.097 0.0282081C25.1885 0.0659655 25.2613 0.138496 25.2992 0.229904L28.5032 7.93546C28.5411 8.02687 28.5413 8.12955 28.5035 8.22102C28.4657 8.31251 28.3933 8.38527 28.3018 8.42317L24.0083 10.2084C23.9615 10.2279 23.9131 10.2372 23.8652 10.2372Z" fill="#333333"/>
<path d="M8.02683 15.5573C7.88064 15.5573 7.74185 15.4707 7.68215 15.3273L7.17862 14.1164C7.09946 13.9261 7.18959 13.7077 7.37987 13.6286C7.57001 13.5494 7.78849 13.6396 7.86758 13.8299L8.22792 14.6963L14.2114 12.2085L14.499 12.897L8.16987 15.5287C8.12308 15.5482 8.07458 15.5573 8.02683 15.5573Z" fill="#333333"/>
<path d="M6.22356 11.2205C6.07738 11.2205 5.93859 11.1339 5.8789 10.9905L5.37536 9.77952C5.29627 9.58925 5.38634 9.37091 5.57661 9.29182L20.9666 2.89276C21.0578 2.85479 21.1607 2.85464 21.2522 2.8924C21.3437 2.93015 21.4163 3.00269 21.4542 3.09409L23.761 8.64196C23.799 8.73329 23.7992 8.83604 23.7614 8.92752C23.7236 9.01901 23.6511 9.09176 23.5597 9.12967L20.0022 10.6088C19.812 10.6879 19.5927 10.5982 19.5135 10.4081C19.4344 10.218 19.5232 10 19.7134 9.92085L22.9287 8.58398L20.9085 3.72499L6.20767 9.83759L6.56793 10.7041C6.64702 10.8943 6.55697 11.1127 6.36669 11.1918C6.31982 11.2112 6.27131 11.2205 6.22356 11.2205Z" fill="#333333"/>
<path d="M3.33981 16.0857C3.19363 16.0857 3.05484 15.9991 2.99514 15.8558C2.91597 15.6655 3.0061 15.4471 3.19638 15.368L7.03525 13.7718L6.02199 11.335L2.18313 12.9312C1.9927 13.0105 1.77444 12.9202 1.69535 12.73C1.61617 12.5397 1.70631 12.3213 1.89659 12.2422L6.07997 10.5027C6.17146 10.4647 6.27414 10.4645 6.36554 10.5023C6.45703 10.5401 6.52978 10.6126 6.56769 10.704L7.8674 13.8299C7.9465 14.0201 7.85643 14.2384 7.66615 14.3176L3.48277 16.0571C3.43607 16.0766 3.38748 16.0857 3.33981 16.0857Z" fill="#333333"/>
<path d="M17.1025 14.7623C16.6772 14.7623 16.2452 14.6809 15.8283 14.509C15.0002 14.1678 14.3544 13.5241 14.0102 12.6962C13.6662 11.8689 13.6652 10.9573 14.0075 10.1294C14.3488 9.30144 14.9924 8.65591 15.8195 8.31199C16.6465 7.96815 17.5582 7.96695 18.3867 8.30878C19.2145 8.65039 19.8599 9.29397 20.2037 10.1211C20.5479 10.9485 20.5492 11.8602 20.2077 12.6881C19.6739 13.9803 18.4207 14.7623 17.1025 14.7623ZM14.6992 12.4097C14.9668 13.0533 15.4689 13.5538 16.1128 13.8191C17.4415 14.3673 18.9691 13.7322 19.5179 12.4033C19.7834 11.7598 19.7823 11.0509 19.5148 10.4074C19.2474 9.76445 18.7458 9.26405 18.1021 8.99848C17.4579 8.73261 16.7491 8.73358 16.106 9.00095C15.463 9.26831 14.9627 9.77019 14.6973 10.4141C14.431 11.058 14.4318 11.7666 14.6992 12.4097Z" fill="#333333"/>
<path d="M17.1093 13.2458C16.3889 13.2458 15.7039 12.8196 15.4105 12.1139C15.0215 11.1786 15.4661 10.1011 16.4015 9.71215C17.3369 9.32309 18.4143 9.76774 18.8033 10.7032C18.9916 11.1562 18.9923 11.6555 18.8051 12.1092C18.6179 12.563 18.2654 12.9165 17.8122 13.1049C17.5825 13.2005 17.344 13.2458 17.1093 13.2458ZM17.1067 10.317C16.9649 10.317 16.823 10.3451 16.688 10.4011C16.4191 10.513 16.2098 10.7229 16.0985 10.9924C15.9874 11.2618 15.9878 11.5584 16.0995 11.8274C16.2115 12.0963 16.4215 12.3057 16.6909 12.4169C16.9604 12.5281 17.2568 12.5277 17.5259 12.4159C17.7948 12.3041 18.0041 12.0941 18.1154 11.8246C18.2265 11.5552 18.2261 11.2586 18.1143 10.9896C18.0025 10.7207 17.7925 10.5113 17.523 10.4001C17.3888 10.3447 17.2477 10.317 17.1067 10.317Z" fill="#333333"/>
<path d="M13.4896 30H10.2124C10.0974 30 9.98881 29.947 9.91814 29.8563C9.84747 29.7655 9.82255 29.6472 9.85068 29.5357L10.2759 27.8505C10.3178 27.6848 10.4668 27.5688 10.6377 27.5688H13.0644C13.2353 27.5688 13.3843 27.6848 13.4261 27.8505L13.8515 29.5357C13.8795 29.6472 13.8546 29.7655 13.784 29.8563C13.7133 29.947 13.6046 30 13.4896 30ZM10.6914 29.2538H13.0107L12.7738 28.3148H10.9284L10.6914 29.2538Z" fill="#333333"/>
<path d="M24.0349 30H20.7577C20.6426 30 20.5341 29.947 20.4634 29.8563C20.3928 29.7655 20.3679 29.6472 20.3959 29.5357L20.8213 27.8505C20.8631 27.6848 21.012 27.5688 21.1829 27.5688H23.6096C23.7805 27.5688 23.9297 27.6848 23.9714 27.8505L24.3967 29.5357C24.4248 29.6472 24.3998 29.7655 24.3292 29.8563C24.2586 29.947 24.15 30 24.0349 30ZM21.2366 29.2538H23.556L23.319 28.3148H21.4736L21.2366 29.2538Z" fill="#333333"/>
<path d="M27.6978 7.34291C27.5516 7.34291 27.4128 7.25635 27.3531 7.11293C27.2738 6.92265 27.364 6.70425 27.5543 6.62515C28.8775 6.0749 29.5065 4.55118 28.9566 3.22841C28.4063 1.90526 26.8822 1.27629 25.5591 1.82646C25.3688 1.90571 25.1504 1.81541 25.0713 1.62521C24.9922 1.43493 25.0823 1.2166 25.2726 1.1375C26.9757 0.429214 28.9375 1.23891 29.6456 2.94194C30.3536 4.6446 29.544 6.60597 27.8408 7.31411C27.7939 7.33366 27.7455 7.34291 27.6978 7.34291Z" fill="#333333"/>
<path d="M28.2077 5.26051C28.1614 5.26051 28.1145 5.25185 28.0689 5.23357C27.8776 5.15686 27.7849 4.93965 27.8615 4.7484C27.9995 4.40441 27.9973 4.0272 27.8555 3.68619C27.7117 3.33995 27.4407 3.07028 27.093 2.92678C26.9025 2.84821 26.8118 2.63003 26.8903 2.4396C26.9689 2.24917 27.1871 2.15836 27.3776 2.23702C27.9097 2.45653 28.3241 2.86955 28.5446 3.3998C28.7618 3.92221 28.7652 4.49992 28.554 5.02628C28.4956 5.17193 28.3557 5.26051 28.2077 5.26051Z" fill="white"/>
<path d="M2.3515 17.3153C2.20532 17.3153 2.06653 17.2287 2.00684 17.0854L0.126733 12.5636C0.0887521 12.4722 0.088603 12.3695 0.12636 12.278C0.164117 12.1865 0.236647 12.1138 0.328056 12.0759L1.60658 11.5443C1.69791 11.5063 1.80066 11.5061 1.89215 11.5439C1.98364 11.5817 2.05639 11.6542 2.09429 11.7456L3.9744 16.2674C4.0535 16.4576 3.96343 16.676 3.77315 16.7551L2.49463 17.2867C2.44776 17.3062 2.39926 17.3153 2.3515 17.3153ZM0.958961 12.6216L2.5526 16.4543L3.1421 16.2093L1.69546 12.73L1.54846 12.3765L0.958961 12.6216Z" fill="#333333"/>
<path d="M26.2644 7.1271C26.1182 7.1271 25.9794 7.04055 25.9196 6.89712L24.8016 4.20801C24.7224 4.01779 24.8125 3.79939 25.0027 3.72029C25.1929 3.64097 25.4114 3.73127 25.4905 3.92153L26.6085 6.61067C26.6878 6.80095 26.5976 7.01928 26.4074 7.09838C26.3605 7.11792 26.3119 7.1271 26.2644 7.1271Z" fill="white"/>
<path d="M24.6161 3.16333C24.4699 3.16333 24.3311 3.07677 24.2713 2.93336L23.9664 2.19999C23.8873 2.00972 23.9775 1.79138 24.1677 1.71229C24.3579 1.63305 24.5764 1.72325 24.6555 1.91353L24.9604 2.6469C25.0395 2.83717 24.9493 3.05551 24.7591 3.1346C24.7123 3.15408 24.6638 3.16333 24.6161 3.16333Z" fill="white"/>
<path d="M7.4714 10.582C7.32522 10.582 7.18643 10.4954 7.12674 10.352C7.04757 10.1617 7.13771 9.94339 7.32799 9.8643L16.8691 5.89709C17.0594 5.81776 17.2777 5.90806 17.3569 6.09833C17.436 6.28861 17.3459 6.50695 17.1556 6.58605L7.61453 10.5533C7.56766 10.5728 7.51916 10.582 7.4714 10.582Z" fill="white"/>
<path d="M18.3337 6.06551C18.1875 6.06551 18.0487 5.97895 17.989 5.83553C17.9099 5.64525 18 5.42691 18.1903 5.34782L18.8508 5.07314C19.041 4.9939 19.2594 5.08412 19.3386 5.27438C19.4177 5.46467 19.3275 5.68301 19.1373 5.7621L18.4768 6.03678C18.43 6.05625 18.3815 6.06551 18.3337 6.06551Z" fill="white"/>
</g>
</svg>
